<?xml version="1.0" encoding="UTF-8" standalone="no"?>
<svg
   height="24"
   viewBox="0 0 24 24"
   width="24"
   version="1.1"
   id="svg4"
   sodipodi:docname="link.svg"
   inkscape:version="1.1.2 (0a00cf5339, 2022-02-04)"
   xmlns:inkscape="http://www.inkscape.org/namespaces/inkscape"
   xmlns:sodipodi="http://sodipodi.sourceforge.net/DTD/sodipodi-0.dtd"
   xmlns="http://www.w3.org/2000/svg"
   xmlns:svg="http://www.w3.org/2000/svg">
  <defs
     id="defs8" />
  <sodipodi:namedview
     id="namedview6"
     pagecolor="#ffffff"
     bordercolor="#666666"
     borderopacity="1.0"
     inkscape:pageshadow="2"
     inkscape:pageopacity="0.0"
     inkscape:pagecheckerboard="0"
     showgrid="false"
     inkscape:zoom="28.416667"
     inkscape:cx="5.4897361"
     inkscape:cy="12.387097"
     inkscape:window-width="1440"
     inkscape:window-height="868"
     inkscape:window-x="0"
     inkscape:window-y="0"
     inkscape:window-maximized="1"
     inkscape:current-layer="svg4" />
  <path
     class="heroicon-ui"
     d="M19 6.41L8.7 16.71a1 1 0 1 1-1.4-1.42L17.58 5H14a1 1 0 0 1 0-2h6a1 1 0 0 1 1 1v6a1 1 0 0 1-2 0V6.41zM17 14a1 1 0 0 1 2 0v5a2 2 0 0 1-2 2H5a2 2 0 0 1-2-2V7c0-1.1.9-2 2-2h5a1 1 0 0 1 0 2H5v12h12v-5z"
     id="path2"
     style="fill:#b05959;fill-opacity:1" />
</svg>
